<?xml version="1.0" encoding="utf-8"?>
<!-- Generator: Adobe Illustrator 26.2.1, SVG Export Plug-In . SVG Version: 6.00 Build 0)  -->
<svg version="1.1" id="Layer_1" xmlns="http://www.w3.org/2000/svg" xmlns:xlink="http://www.w3.org/1999/xlink" x="0px" y="0px"
	 viewBox="0 0 179.031 121.328" style="enable-background:new 0 0 179.031 121.328;" xml:space="preserve">
<style type="text/css">
	.st0{clip-path:url(#SVGID_00000178207282504337950920000011433101550092437181_);}
	.st1{clip-path:url(#SVGID_00000112617552023262589470000011901640584326508690_);}
</style>
<g>
	<defs>
		<rect id="SVGID_1_" y="0.328" width="89.516" height="121"/>
	</defs>
	<clipPath id="SVGID_00000151520134237356837260000007945232389970471846_">
		<use xlink:href="#SVGID_1_"  style="overflow:visible;"/>
	</clipPath>
	<g style="clip-path:url(#SVGID_00000151520134237356837260000007945232389970471846_);">
		<path d="M85.589,115.042c0,1.068-0.875,1.943-1.948,1.943c-1.068,0-1.943-0.875-1.943-1.943V74.208
			c0-3.219-2.615-5.833-5.833-5.833s-5.833,2.615-5.833,5.833v40.833c0,1.068-0.875,1.943-1.943,1.943
			c-1.073,0-1.943-0.875-1.943-1.943V74.208c0-3.219-2.615-5.833-5.833-5.833c-3.224,0-5.833,2.615-5.833,5.833v40.833
			c0,1.068-0.875,1.943-1.948,1.943c-1.068,0-1.943-0.875-1.943-1.943V74.208c0-3.219-2.615-5.833-5.833-5.833
			s-5.833,2.615-5.833,5.833v40.833c0,1.068-0.87,1.943-1.943,1.943s-1.943-0.875-1.943-1.943V74.208
			c0-3.219-2.615-5.833-5.833-5.833c-3.224,0-5.833,2.615-5.833,5.833v40.833c0,1.068-0.875,1.943-1.948,1.943
			c-1.068,0-1.943-0.875-1.943-1.943V74.208c0-3.219-2.609-5.833-5.833-5.833c-3.219,0-5.833,2.615-5.833,5.833v40.833
			c0,1.068-0.87,1.943-1.943,1.943s-1.943-0.875-1.943-1.943V66.432c0-3.047,1.458-5.948,3.885-7.776
			c1.672-1.255,3.745-1.943,5.833-1.943h16.219c4.995,0,9.057-4.068,9.057-9.062c0-3.516-2.062-6.745-5.26-8.224l-6.74-3.109
			c-8.062-3.719-13.276-11.87-13.276-20.75c0-6.255,5.099-11.354,11.354-11.354c5.047,0,9.531,3.391,10.922,8.234l0.417,1.49h-3.25
			c-4.292,0-7.776,3.484-7.776,7.776s3.484,7.776,7.776,7.776h23.333c4.292,0,7.776-3.484,7.776-7.776s-3.484-7.776-7.776-7.776
			h-3.25l0.417-1.49c1.391-4.844,5.88-8.234,10.922-8.234c6.26,0,11.354,5.099,11.354,11.354c0,8.88-5.208,17.031-13.276,20.75
			l-6.734,3.109c-3.198,1.479-5.266,4.708-5.266,8.224c0,4.995,4.062,9.062,9.062,9.062h16.214c2.089,0,4.161,0.688,5.833,1.943
			c2.438,1.828,3.891,4.729,3.891,7.776V115.042z M56.422,17.823c2.141,0,3.891,1.75,3.891,3.891s-1.75,3.891-3.891,3.891H33.089
			c-2.141,0-3.885-1.75-3.885-3.891s1.745-3.891,3.885-3.891H56.422z M84.031,55.547c-2.339-1.76-5.234-2.724-8.167-2.724H59.651
			c-2.849,0-5.172-2.323-5.172-5.172c0-2.005,1.177-3.849,3-4.693l6.745-3.109c9.432-4.359,15.531-13.891,15.531-24.281
			c0-8.406-6.844-15.24-15.245-15.24c-6.776,0-12.797,4.547-14.656,11.047l-0.729,2.562h-8.734l-0.729-2.552
			C37.797,4.875,31.776,0.328,25,0.328c-8.406,0-15.24,6.844-15.24,15.24c0,10.401,6.099,19.922,15.531,24.281l6.745,3.109
			c1.823,0.844,3,2.688,3,4.693c0,2.849-2.328,5.172-5.172,5.172H13.646c-2.932,0-5.823,0.964-8.161,2.724
			c-3.411,2.552-5.448,6.625-5.448,10.885v48.609c0,3.219,2.615,5.833,5.833,5.833s5.833-2.615,5.833-5.833V74.208
			c0-1.068,0.875-1.943,1.943-1.943c1.073,0,1.948,0.875,1.948,1.943v40.833c0,3.219,2.609,5.833,5.828,5.833
			c3.224,0,5.833-2.615,5.833-5.833V74.208c0-1.068,0.875-1.943,1.948-1.943c1.068,0,1.943,0.875,1.943,1.943v40.833
			c0,3.219,2.615,5.833,5.833,5.833s5.833-2.615,5.833-5.833V74.208c0-1.068,0.875-1.943,1.943-1.943
			c1.073,0,1.943,0.875,1.943,1.943v40.833c0,3.219,2.615,5.833,5.833,5.833c3.224,0,5.833-2.615,5.833-5.833V74.208
			c0-1.068,0.875-1.943,1.948-1.943c1.068,0,1.943,0.875,1.943,1.943v40.833c0,3.219,2.615,5.833,5.833,5.833
			s5.833-2.615,5.833-5.833V74.208c0-1.068,0.87-1.943,1.943-1.943s1.943,0.875,1.943,1.943v40.833c0,3.219,2.615,5.833,5.833,5.833
			c3.224,0,5.833-2.615,5.833-5.833V66.432C89.474,62.172,87.438,58.099,84.031,55.547"/>
	</g>
</g>
<g>
	<defs>
		<rect id="SVGID_00000133513502650176958890000013419447300246948769_" x="89.516" width="89.516" height="120.875"/>
	</defs>
	<clipPath id="SVGID_00000005243715949288080970000008980811939069493664_">
		<use xlink:href="#SVGID_00000133513502650176958890000013419447300246948769_"  style="overflow:visible;"/>
	</clipPath>
	<g style="clip-path:url(#SVGID_00000005243715949288080970000008980811939069493664_);">
		<path d="M93.443,6.161c0-1.073,0.875-1.948,1.943-1.948c1.073,0,1.948,0.875,1.948,1.948V46.99c0,3.219,2.609,5.833,5.833,5.833
			c3.219,0,5.833-2.615,5.833-5.833V6.161c0-1.073,0.87-1.948,1.943-1.948c1.068,0,1.943,0.875,1.943,1.948V46.99
			c0,3.219,2.615,5.833,5.833,5.833s5.833-2.615,5.833-5.833V6.161c0-1.073,0.875-1.948,1.943-1.948
			c1.073,0,1.948,0.875,1.948,1.948V46.99c0,3.219,2.609,5.833,5.828,5.833c3.224,0,5.833-2.615,5.833-5.833V6.161
			c0-1.073,0.875-1.948,1.948-1.948c1.068,0,1.943,0.875,1.943,1.948V46.99c0,3.219,2.615,5.833,5.833,5.833
			s5.833-2.615,5.833-5.833V6.161c0-1.073,0.875-1.948,1.943-1.948c1.073,0,1.943,0.875,1.943,1.948V46.99
			c0,3.219,2.615,5.833,5.833,5.833c3.224,0,5.833-2.615,5.833-5.833V6.161c0-1.073,0.875-1.948,1.948-1.948
			c1.068,0,1.943,0.875,1.943,1.948v48.604c0,3.047-1.458,5.948-3.891,7.781c-1.667,1.25-3.745,1.943-5.833,1.943h-16.214
			c-4.995,0-9.062,4.062-9.062,9.057c0,3.521,2.068,6.745,5.266,8.229l6.734,3.104c8.068,3.724,13.276,11.87,13.276,20.75
			c0,6.26-5.094,11.354-11.354,11.354c-5.042,0-9.531-3.385-10.922-8.234l-0.417-1.484h3.25c4.292,0,7.781-3.49,7.781-7.781
			c0-4.292-3.49-7.776-7.781-7.776h-23.328c-4.292,0-7.781,3.484-7.781,7.776c0,4.292,3.49,7.781,7.781,7.781h3.25l-0.417,1.484
			c-1.391,4.849-5.88,8.234-10.922,8.234c-6.26,0-11.354-5.094-11.354-11.354c0-8.88,5.208-17.026,13.276-20.75l6.734-3.104
			c3.198-1.484,5.266-4.708,5.266-8.229c0-4.995-4.068-9.057-9.063-9.057h-16.214c-2.089,0-4.167-0.693-5.833-1.943
			c-2.438-1.833-3.891-4.734-3.891-7.781V6.161z M122.609,103.375c-2.146,0-3.891-1.745-3.891-3.891
			c0-2.141,1.745-3.885,3.891-3.885h23.328c2.146,0,3.891,1.745,3.891,3.885c0,2.146-1.745,3.891-3.891,3.891H122.609z M95,65.651
			c2.339,1.76,5.234,2.724,8.167,2.724h16.214c2.849,0,5.172,2.328,5.172,5.172c0,2.005-1.177,3.854-3,4.698l-6.745,3.104
			c-9.432,4.359-15.531,13.891-15.531,24.281c0,8.406,6.844,15.245,15.245,15.245c6.771,0,12.797-4.552,14.656-11.052l0.729-2.557
			h8.734l0.729,2.552c1.859,6.505,7.885,11.057,14.656,11.057c8.411,0,15.245-6.844,15.245-15.245
			c0-10.396-6.099-19.922-15.531-24.281l-6.745-3.104c-1.823-0.844-3-2.693-3-4.698c0-2.844,2.323-5.172,5.172-5.172h16.214
			c2.932,0,5.828-0.964,8.167-2.724c3.411-2.552,5.448-6.625,5.448-10.885V6.161c0-3.224-2.615-5.833-5.833-5.833
			c-3.224,0-5.833,2.609-5.833,5.833V46.99c0,1.073-0.875,1.943-1.948,1.943c-1.068,0-1.943-0.87-1.943-1.943V6.161
			c0-3.224-2.615-5.833-5.833-5.833s-5.833,2.609-5.833,5.833V46.99c0,1.073-0.87,1.943-1.943,1.943
			c-1.073,0-1.943-0.87-1.943-1.943V6.161c0-3.224-2.615-5.833-5.833-5.833c-3.224,0-5.833,2.609-5.833,5.833V46.99
			c0,1.073-0.875,1.943-1.948,1.943c-1.068,0-1.943-0.87-1.943-1.943V6.161c0-3.224-2.609-5.833-5.833-5.833
			c-3.219,0-5.833,2.609-5.833,5.833V46.99c0,1.073-0.87,1.943-1.943,1.943c-1.073,0-1.943-0.87-1.943-1.943V6.161
			c0-3.224-2.615-5.833-5.833-5.833s-5.833,2.609-5.833,5.833V46.99c0,1.073-0.875,1.943-1.943,1.943
			c-1.073,0-1.948-0.87-1.948-1.943V6.161c0-3.224-2.609-5.833-5.833-5.833c-3.219,0-5.833,2.609-5.833,5.833v48.604
			C89.552,59.026,91.589,63.099,95,65.651"/>
	</g>
</g>
<g>
</g>
<g>
</g>
<g>
</g>
<g>
</g>
<g>
</g>
</svg>
